<svg xmlns="http://www.w3.org/2000/svg" width="900" height="620" viewBox="0 0 900 620" fill="none"><rect width="900" height="620" rx="32" fill="#091226"/><rect x="42" y="42" width="816" height="536" rx="26" fill="white"/><rect x="82" y="82" width="180" height="18" rx="9" fill="#DCE8F5"/><rect x="82" y="134" width="340" height="206" rx="24" fill="#F7FAFD" stroke="#DCE6F2" stroke-width="2"/><path d="M150 290H346" stroke="#D2DFEE" stroke-width="10" stroke-linecap="round"/><path d="M174 266H322" stroke="#38B6FF" stroke-width="26" stroke-linecap="round"/><path d="M198 234H298" stroke="#7ACFFF" stroke-width="26" stroke-linecap="round"/><path d="M222 202H274" stroke="#B4E3FF" stroke-width="26" stroke-linecap="round"/><rect x="456" y="134" width="302" height="206" rx="24" fill="#0B1426"/><rect x="492" y="170" width="72" height="132" rx="12" fill="#38B6FF"/><rect x="584" y="214" width="72" height="88" rx="12" fill="#62C4FF"/><rect x="676" y="188" width="46" height="114" rx="12" fill="#9AD8FF"/><rect x="82" y="380" width="220" height="152" rx="22" fill="#F7FAFD" stroke="#DCE6F2" stroke-width="2"/><rect x="116" y="416" width="116" height="16" rx="8" fill="#D2DFEE"/><rect x="116" y="452" width="148" height="14" rx="7" fill="#E5EDF7"/><rect x="334" y="380" width="220" height="152" rx="22" fill="#F7FAFD" stroke="#DCE6F2" stroke-width="2"/><rect x="368" y="416" width="116" height="16" rx="8" fill="#D2DFEE"/><rect x="368" y="452" width="148" height="14" rx="7" fill="#E5EDF7"/><rect x="586" y="380" width="172" height="152" rx="22" fill="#38B6FF"/><rect x="620" y="416" width="104" height="16" rx="8" fill="#B7E4FF"/><rect x="620" y="454" width="116" height="40" rx="12" fill="white"/></svg>